<svg width="10" height="8" viewBox="0 0 10 8" fill="none" xmlns="http://www.w3.org/2000/svg">
    <path fill-rule="evenodd" clip-rule="evenodd" d="M5.11764 7.96857C5.1769 7.94074 5.36241 7.65332 6.76495 5.41622C7.63425 4.02967 8.71431 2.30707 9.16508 1.5882C9.61587 0.869332 9.98989 0.262158 9.99622 0.238939C10.0133 0.176462 9.97037 0.076735 9.91025 0.0392699C9.85952 0.00765419 9.67289 0.00621891 5.02485 0.00176907C0.532969 -0.00253773 0.187303 -0.000724792 0.122999 0.0272837C0.0555105 0.0566926 0 0.137382 0 0.206068C0 0.222755 1.09165 1.96796 2.42591 4.08429C4.94073 8.07322 4.89224 7.99979 5.0118 7.99992C5.03329 7.99994 5.08093 7.98583 5.11764 7.96857Z" fill="black"/>
</svg>