<svg width="27" height="5" viewBox="0 0 27 5" fill="none" xmlns="http://www.w3.org/2000/svg">
<path fill-rule="evenodd" clip-rule="evenodd" d="M0.0157131 2.55882C0.0296279 2.58845 0.173342 2.6812 1.29189 3.38247C1.98516 3.81712 2.84647 4.35716 3.2059 4.58254C3.56533 4.80794 3.86892 4.99495 3.88053 4.99811C3.91177 5.00665 3.96163 4.98519 3.98037 4.95512C3.99617 4.92976 3.99689 4.83644 3.99912 2.51242C4.00127 0.266485 4.00036 0.0936513 3.98636 0.0614996C3.97165 0.0277553 3.93131 0 3.89697 0C3.88862 0 3.01602 0.545826 1.95786 1.21295C-0.0366087 2.47037 0.000102699 2.44612 3.9898e-05 2.5059C3.09265e-05 2.51665 0.00708251 2.54046 0.0157131 2.55882Z" fill="#6B6A6A"/>
<path d="M4 2.5H27" stroke="#6B6A6A"/>
</svg>
