<svg width="15" height="13" viewBox="0 0 15 13" fill="none" xmlns="http://www.w3.org/2000/svg">
<path d="M13.6815 0.787109H1.31823C1.11529 0.787109 0.925303 0.837002 0.753418 0.919238L7.47058 7.6364L8.97611 6.18951C8.97611 6.18951 8.97623 6.18937 8.97626 6.18931C8.97629 6.18925 8.97641 6.18919 8.97641 6.18919L14.2465 0.919355C14.0746 0.837061 13.8845 0.787109 13.6815 0.787109Z" fill="white"/>
<path d="M14.8682 1.54102L9.90869 6.50022L14.868 11.4595C14.9502 11.2876 15.0001 11.0976 15.0001 10.8947V2.10563C15.0001 1.9028 14.9503 1.71284 14.8682 1.54102Z" fill="white"/>
<path d="M0.132129 1.54053C0.0498926 1.71241 0 1.9024 0 2.10534V10.8944C0 11.0972 0.049834 11.2872 0.132012 11.4591L5.09147 6.49987L0.132129 1.54053Z" fill="white"/>
<path d="M9.28725 7.12164L7.7815 8.5687C7.69566 8.65454 7.58322 8.69746 7.47081 8.69746C7.3584 8.69746 7.24593 8.65454 7.16012 8.5687L5.71297 7.12158L0.753418 12.0808C0.925332 12.1631 1.11544 12.2131 1.31844 12.2131H13.6817C13.8847 12.2131 14.0746 12.1632 14.2465 12.0809L9.28725 7.12164Z" fill="white"/>
</svg>
