<svg width="30" height="30" viewBox="0 0 30 30" fill="none" xmlns="http://www.w3.org/2000/svg">
<path fill-rule="evenodd" clip-rule="evenodd" d="M24.0081 30H18.0321V19.972H22.78L23.4 15.958H18.0321C18.0321 15.958 18.0321 11.388 18.0321 10.938C18.05 10.7832 18.0999 10.6339 18.1786 10.4994C18.2573 10.3649 18.3631 10.2483 18.4893 10.1569C18.6155 10.0655 18.7593 10.0012 18.9116 9.96838C19.0639 9.93553 19.2214 9.93469 19.374 9.96594C20.252 9.96594 21.984 9.96594 21.984 9.96594L22.608 6C21.0094 5.89111 19.4049 5.90315 17.8081 6.03601C16.6944 6.18426 15.6765 6.74354 14.9541 7.604C14.2723 8.52661 13.9347 9.65863 14 10.804V15.986L10 15.958V19.972L14 19.986V30H6C4.4087 30 2.88266 29.3679 1.75745 28.2427C0.632228 27.1175 0 25.5913 0 24V6C0 4.4087 0.632228 2.88254 1.75745 1.75732C2.88266 0.632106 4.4087 0 6 0H24C25.5913 0 27.1175 0.632106 28.2427 1.75732C29.3679 2.88254 30 4.4087 30 6V24C30 25.5899 29.369 27.1149 28.2455 28.2399C27.122 29.3649 25.598 29.9979 24.0081 30Z" fill="#333333"/>
</svg>
