<svg width="20" height="20" viewBox="0 0 20 20" fill="none" xmlns="http://www.w3.org/2000/svg">
<path fill-rule="evenodd" clip-rule="evenodd" d="M16.0054 20H12.0214V13.3147H15.1867L15.6 10.6387H12.0214C12.0214 10.6387 12.0214 7.59199 12.0214 7.29199C12.0333 7.1888 12.0666 7.08924 12.1191 6.99959C12.1715 6.90994 12.242 6.83217 12.3262 6.77124C12.4103 6.71031 12.5062 6.66749 12.6077 6.64559C12.7093 6.62369 12.8142 6.62313 12.916 6.64396C13.5013 6.64396 14.656 6.64396 14.656 6.64396L15.072 4C14.0063 3.9274 12.9366 3.93543 11.8721 4.02401C11.1296 4.12284 10.451 4.49569 9.9694 5.06934C9.51488 5.68441 9.28982 6.43909 9.33333 7.20264V10.6573L6.66667 10.6387V13.3147L9.33333 13.324V20H4C2.93913 20 1.92178 19.5786 1.17163 18.8285C0.421485 18.0783 0 17.0609 0 16V4C0 2.93913 0.421485 1.92169 1.17163 1.17155C1.92178 0.421404 2.93913 0 4 0H16C17.0609 0 18.0783 0.421404 18.8285 1.17155C19.5786 1.92169 20 2.93913 20 4V16C20 17.0599 19.5793 18.0766 18.8303 18.8266C18.0813 19.5766 17.0653 19.9986 16.0054 20Z" fill="white"/>
</svg>
