<svg width="43" height="43" viewBox="0 0 43 43" fill="none" xmlns="http://www.w3.org/2000/svg">
<path d="M0 21.5C0 33.3741 9.62588 43 21.5 43C33.3741 43 43 33.3741 43 21.5C43 9.62588 33.3741 0 21.5 0C9.62588 0 0 9.62588 0 21.5Z" fill="#3B5998"/>
<path fill-rule="evenodd" clip-rule="evenodd" d="M23.1076 16.9815C23.6144 16.9791 24.0463 16.611 24.1252 16.1103C24.2192 15.5136 23.781 14.9617 23.177 14.9633C22.751 14.9644 22.325 14.9827 21.9001 15.018C21.3433 15.0922 20.8343 15.3718 20.4731 15.802C20.1323 16.2633 19.9635 16.8294 19.9961 17.402V18.994C19.9961 19.5451 19.5472 19.9907 18.9961 19.9865C18.445 19.9824 17.9961 20.4325 17.9961 20.9836C17.9961 21.5353 18.4433 21.9876 18.9951 21.9895C19.5479 21.9915 19.9961 22.4402 19.9961 22.993V26.984C19.9961 27.5409 20.4482 27.9919 21.0051 27.9905C21.56 27.9892 22.0091 27.5389 22.0091 26.984V23.2662C22.0091 22.5603 22.5813 21.988 23.2872 21.988H23.5227C24.0178 21.988 24.4389 21.627 24.5145 21.1377C24.6084 20.5296 24.138 19.981 23.5227 19.981H23.2481C22.5638 19.981 22.0091 19.4263 22.0091 18.7421C22.0091 18.1643 22.0091 17.5798 22.0091 17.472C22.0179 17.3945 22.0428 17.3198 22.0821 17.2524C22.1214 17.1851 22.1743 17.1266 22.2374 17.0808C22.3005 17.035 22.3725 17.0028 22.4487 16.9863C22.4769 16.9802 22.5055 16.9763 22.5342 16.9746C22.6316 16.9688 22.7291 16.9843 22.8266 16.9834C22.9139 16.9826 23.0097 16.982 23.1076 16.9815Z" fill="white"/>
<path d="M26 14H17C15.3431 14 14 15.3431 14 17V26C14 27.6569 15.3431 29 17 29H26C27.6569 29 29 27.6569 29 26V17C29 15.3431 27.6569 14 26 14Z" fill="white"/>
<path fill-rule="evenodd" clip-rule="evenodd" d="M24.1076 18.9815C24.6144 18.9791 25.0463 18.611 25.1252 18.1103C25.2192 17.5136 24.781 16.9617 24.177 16.9633C23.751 16.9644 23.325 16.9827 22.9001 17.018C22.3433 17.0922 21.8343 17.3718 21.4731 17.802C21.1323 18.2633 20.9635 18.8294 20.9961 19.402V20.994C20.9961 21.5451 20.5472 21.9907 19.9961 21.9865C19.445 21.9824 18.9961 22.4325 18.9961 22.9836C18.9961 23.5353 19.4433 23.9876 19.9951 23.9895C20.5479 23.9915 20.9961 24.4402 20.9961 24.993V28.984C20.9961 29.5409 21.4482 29.9919 22.0051 29.9905C22.56 29.9892 23.0091 29.5389 23.0091 28.984V25.2662C23.0091 24.5603 23.5813 23.988 24.2872 23.988H24.5227C25.0178 23.988 25.4389 23.627 25.5145 23.1377C25.6084 22.5296 25.138 21.981 24.5227 21.981H24.2481C23.5638 21.981 23.0091 21.4263 23.0091 20.7421C23.0091 20.1643 23.0091 19.5798 23.0091 19.472C23.0179 19.3945 23.0428 19.3198 23.0821 19.2524C23.1214 19.1851 23.1743 19.1266 23.2374 19.0808C23.3005 19.035 23.3725 19.0028 23.4487 18.9863C23.4769 18.9802 23.5055 18.9763 23.5342 18.9746C23.6316 18.9688 23.7291 18.9843 23.8266 18.9834C23.9139 18.9826 24.0097 18.982 24.1076 18.9815Z" fill="#3B5998"/>
</svg>
