<svg width="40" height="40" viewBox="0 0 40 40" fill="none" xmlns="http://www.w3.org/2000/svg">
<path d="M40 0H0V40H40V0Z" fill="url(#paint0_linear)"/>
<path fill-rule="evenodd" clip-rule="evenodd" d="M16.7444 13.0232H23.256C24.2428 13.0232 25.1893 13.4152 25.8871 14.113C26.5849 14.8108 26.9769 15.7573 26.9769 16.7441V23.2558C26.9769 24.2426 26.5849 25.189 25.8871 25.8868C25.1893 26.5847 24.2428 26.9767 23.256 26.9767H16.7444C15.7575 26.9767 14.8111 26.5847 14.1133 25.8868C13.4155 25.189 13.0234 24.2426 13.0234 23.2558V16.7441C13.0234 15.7573 13.4155 14.8108 14.1133 14.113C14.8111 13.4152 15.7575 13.0232 16.7444 13.0232ZM16.7444 14.8837H23.256C23.7494 14.8837 24.2226 15.0797 24.5715 15.4286C24.9204 15.7775 25.1165 16.2507 25.1165 16.7441V23.2558C25.1165 23.7492 24.9204 24.2224 24.5715 24.5713C24.2226 24.9202 23.7494 25.1162 23.256 25.1162H16.7444C16.2509 25.1162 15.7778 24.9202 15.4288 24.5713C15.0799 24.2224 14.8839 23.7492 14.8839 23.2558V16.7441C14.8839 16.2507 15.0799 15.7775 15.4288 15.4286C15.7778 15.0797 16.2509 14.8837 16.7444 14.8837ZM20.0002 16.7441C20.6441 16.7441 21.2736 16.9351 21.809 17.2928C22.3445 17.6506 22.7617 18.1591 23.0082 18.754C23.2546 19.3489 23.3191 20.0036 23.1934 20.6351C23.0678 21.2667 22.7577 21.8468 22.3024 22.3022C21.847 22.7575 21.2669 23.0676 20.6353 23.1932C20.0038 23.3188 19.3491 23.2543 18.7542 23.0079C18.1593 22.7615 17.6508 22.3442 17.2931 21.8088C16.9353 21.2733 16.7444 20.6439 16.7444 19.9999C16.7444 19.1364 17.0874 18.3083 17.698 17.6977C18.3086 17.0871 19.1367 16.7441 20.0002 16.7441ZM20.0002 18.6046C20.2762 18.6046 20.5459 18.6864 20.7754 18.8398C21.0049 18.9931 21.1837 19.211 21.2893 19.466C21.3949 19.7209 21.4226 20.0015 21.3687 20.2722C21.3149 20.5428 21.182 20.7915 20.9869 20.9866C20.7917 21.1817 20.5431 21.3146 20.2724 21.3685C20.0018 21.4223 19.7212 21.3947 19.4662 21.2891C19.2112 21.1835 18.9933 21.0046 18.84 20.7751C18.6867 20.5457 18.6048 20.2759 18.6048 19.9999C18.6048 19.6299 18.7518 19.2749 19.0135 19.0133C19.2752 18.7516 19.6301 18.6046 20.0002 18.6046Z" fill="white"/>
<defs>
<linearGradient id="paint0_linear" x1="30.0019" y1="-1.59734e-07" x2="9.99814" y2="40" gradientUnits="userSpaceOnUse">
<stop stop-color="#9E42B4"/>
<stop offset="0.067" stop-color="#9E42B4"/>
<stop offset="0.473" stop-color="#E5566F"/>
<stop offset="1" stop-color="#FDC76D"/>
</linearGradient>
</defs>
</svg>
