<svg width="20" height="20" viewBox="0 0 20 20" fill="none" xmlns="http://www.w3.org/2000/svg">
<path fill-rule="evenodd" clip-rule="evenodd" d="M5.33333 0H14.6667C16.0812 0 17.4377 0.561899 18.4379 1.56209C19.4381 2.56229 20 3.91885 20 5.33333V14.6667C20 16.0812 19.4381 17.4377 18.4379 18.4379C17.4377 19.4381 16.0812 20 14.6667 20H5.33333C3.91885 20 2.56229 19.4381 1.56209 18.4379C0.561899 17.4377 0 16.0812 0 14.6667V5.33333C0 3.91885 0.561899 2.56229 1.56209 1.56209C2.56229 0.561899 3.91885 0 5.33333 0ZM5.33333 2.66667H14.6667C15.3739 2.66667 16.0521 2.94766 16.5522 3.44775C17.0523 3.94785 17.3333 4.62609 17.3333 5.33333V14.6667C17.3333 15.3739 17.0523 16.0521 16.5522 16.5522C16.0521 17.0523 15.3739 17.3333 14.6667 17.3333H5.33333C4.62609 17.3333 3.94785 17.0523 3.44775 16.5522C2.94766 16.0521 2.66667 15.3739 2.66667 14.6667V5.33333C2.66667 4.62609 2.94766 3.94785 3.44775 3.44775C3.94785 2.94766 4.62609 2.66667 5.33333 2.66667ZM10 5.33333C10.923 5.33333 11.8253 5.60701 12.5927 6.11979C13.3601 6.63257 13.9582 7.36139 14.3114 8.21411C14.6647 9.06683 14.7571 10.0052 14.577 10.9104C14.3969 11.8156 13.9524 12.6472 13.2998 13.2998C12.6472 13.9524 11.8156 14.3969 10.9104 14.577C10.0052 14.7571 9.06683 14.6647 8.21411 14.3114C7.36139 13.9582 6.63257 13.3601 6.11979 12.5927C5.60701 11.8253 5.33333 10.923 5.33333 10C5.33333 8.76232 5.82503 7.57537 6.7002 6.7002C7.57537 5.82503 8.76232 5.33333 10 5.33333ZM10 8C10.3956 8 10.7823 8.11731 11.1112 8.33708C11.4401 8.55684 11.6964 8.86917 11.8477 9.23462C11.9991 9.60007 12.0388 10.0023 11.9616 10.3902C11.8844 10.7782 11.6939 11.1345 11.4142 11.4142C11.1345 11.6939 10.7782 11.8844 10.3902 11.9616C10.0023 12.0388 9.60007 11.9991 9.23462 11.8477C8.86917 11.6964 8.55684 11.4401 8.33708 11.1112C8.11731 10.7823 8 10.3956 8 10C8 9.46957 8.2107 8.96085 8.58578 8.58578C8.96085 8.2107 9.46957 8 10 8Z" fill="white"/>
</svg>
