<svg width="1493" height="531" viewBox="0 0 1493 531" fill="none" xmlns="http://www.w3.org/2000/svg">
<rect width="1493" height="531" fill="#BABABA"/>
<path d="M266.48 470.2C289.813 470.2 308.993 464.273 324.02 452.42C339.14 440.473 349.547 424.513 355.24 404.54L329.9 397.82C325.793 412.753 318.42 424.607 307.78 433.38C297.233 442.06 283.467 446.4 266.48 446.4C251.453 446.4 238.9 442.993 228.82 436.18C218.74 429.367 211.18 419.847 206.14 407.62C201.1 395.393 198.627 381.253 198.72 365.2C198.813 349.053 201.38 334.913 206.42 322.78C211.46 310.553 218.973 301.033 228.96 294.22C238.947 287.407 251.453 284 266.48 284C283.467 284 297.233 288.34 307.78 297.02C318.42 305.7 325.793 317.553 329.9 332.58L355.24 325.86C349.547 305.793 339.14 289.833 324.02 277.98C308.993 266.127 289.813 260.2 266.48 260.2C246.413 260.2 229.333 264.633 215.24 273.5C201.24 282.367 190.6 294.687 183.32 310.46C176.04 326.233 172.4 344.48 172.4 365.2C172.4 385.92 176.04 404.167 183.32 419.94C190.6 435.713 201.24 448.033 215.24 456.9C229.333 465.767 246.413 470.2 266.48 470.2ZM450.344 470.2C465.37 470.2 478.297 466.84 489.124 460.12C500.044 453.4 508.444 444.02 514.324 431.98C520.297 419.94 523.284 406.033 523.284 390.26C523.284 374.673 520.344 360.907 514.464 348.96C508.677 336.92 500.324 327.54 489.404 320.82C478.484 314.007 465.464 310.6 450.344 310.6C435.597 310.6 422.764 313.96 411.844 320.68C400.924 327.307 392.477 336.593 386.504 348.54C380.53 360.487 377.544 374.393 377.544 390.26C377.544 405.847 380.437 419.66 386.224 431.7C392.104 443.74 400.504 453.167 411.424 459.98C422.344 466.793 435.317 470.2 450.344 470.2ZM450.344 446.54C435.13 446.54 423.604 441.453 415.764 431.28C407.924 421.013 404.004 407.34 404.004 390.26C404.004 373.74 407.784 360.3 415.344 349.94C422.904 339.487 434.57 334.26 450.344 334.26C465.837 334.26 477.457 339.347 485.204 349.52C492.95 359.693 496.824 373.273 496.824 390.26C496.824 406.873 492.95 420.407 485.204 430.86C477.55 441.313 465.93 446.54 450.344 446.54ZM556.908 466H581.828V260.2H556.908V466ZM626.634 466H651.554V260.2H626.634V466ZM696.361 288.06H721.281V262.3H696.361V288.06ZM696.361 466H721.281V314.8H696.361V466ZM763.148 466H785.408V448.92C790.914 455.547 797.588 460.773 805.428 464.6C813.361 468.333 822.461 470.2 832.728 470.2C846.821 470.2 858.908 466.7 868.988 459.7C879.161 452.607 886.954 443.04 892.368 431C897.781 418.96 900.488 405.38 900.488 390.26C900.488 375.14 897.781 361.56 892.368 349.52C886.954 337.48 879.161 328.007 868.988 321.1C858.908 314.1 846.868 310.6 832.868 310.6C823.441 310.6 814.994 312.187 807.528 315.36C800.061 318.533 793.621 322.92 788.208 328.52V264.4H763.148V466ZM829.648 447.38C814.434 447.38 803.234 442.013 796.048 431.28C788.954 420.547 785.408 406.873 785.408 390.26C785.408 373.553 788.954 359.927 796.048 349.38C803.234 338.74 814.201 333.42 828.948 333.42C839.214 333.42 847.661 335.94 854.288 340.98C861.008 346.02 865.954 352.833 869.128 361.42C872.394 370.007 874.028 379.62 874.028 390.26C874.028 400.993 872.394 410.7 869.128 419.38C865.861 427.967 860.961 434.78 854.428 439.82C847.894 444.86 839.634 447.38 829.648 447.38ZM931.178 466H956.238V390.12C956.238 381.16 957.451 372.527 959.878 364.22C962.305 355.913 967.205 349.147 974.578 343.92C979.805 340.093 985.545 337.853 991.798 337.2C998.145 336.547 1003.93 336.873 1009.16 338.18V314.8C1002.44 313.307 995.065 313.307 987.038 314.8C979.011 316.293 972.105 319.373 966.318 324.04C961.278 327.587 956.985 332.487 953.438 338.74V314.8H931.178V466ZM1038.43 288.06H1063.35V262.3H1038.43V288.06ZM1038.43 466H1063.35V314.8H1038.43V466Z" fill="white"/>
<path fill-rule="evenodd" clip-rule="evenodd" d="M1288.61 79.2279C1273.74 94.2366 1262.79 106.322 1258.69 112.25C1255.39 117.016 1252.17 123.698 1248.81 132.763C1247.13 137.281 1244.31 143.629 1242.54 146.871C1240.73 150.194 1238.55 155.665 1237.54 159.412C1233.83 173.163 1222.97 198.132 1220.01 199.702C1219.06 200.208 1215.05 199.602 1205.33 197.48C1189.58 194.041 1182.91 193.666 1178.45 195.967C1174 198.265 1169.78 202.237 1165.61 208.066C1163.5 211.015 1161.2 214.12 1160.51 214.964C1159.82 215.807 1148.05 222.51 1134.36 229.859C1102.36 247.034 1099.75 248.469 1100.02 248.734C1100.14 248.857 1113.98 244.032 1130.76 238.012C1148.88 231.518 1161.89 227.216 1162.76 227.431C1163.57 227.629 1167.91 229.081 1172.41 230.658C1176.91 232.235 1181.53 233.526 1182.67 233.529C1187.39 233.539 1194.76 238.788 1202.28 247.487C1207.71 253.78 1215.68 259.156 1229.95 266.162C1240.05 271.12 1240.28 271.193 1245.96 271.232C1249.12 271.254 1252.63 271.019 1253.75 270.709L1255.79 270.145L1252.95 275.294C1249.39 281.725 1245.97 287.965 1243.77 292.048C1242.83 293.776 1242.26 295.671 1242.48 296.259C1242.71 296.848 1242.67 297.099 1242.38 296.819C1242.1 296.539 1241.15 297.513 1240.26 298.984C1239.1 300.919 1238.52 303.332 1238.16 307.707C1237.88 311.082 1237.94 313.927 1238.3 314.143C1238.64 314.356 1240.28 313.614 1241.94 312.493C1245.31 310.216 1245.6 310.719 1243.52 315.26C1241.65 319.35 1241.74 321.811 1243.85 324.074C1246.75 327.17 1247.86 326.366 1249.54 319.973C1250.7 315.55 1251.08 314.847 1251.85 315.617C1252.13 315.888 1251.93 317.607 1251.41 319.438C1249.41 326.517 1249.26 328.305 1250.35 331.658C1251.56 335.391 1254.29 338.319 1255.97 337.682C1256.59 337.446 1257.68 335.898 1258.4 334.242L1259.7 331.231L1259.72 334.828C1259.73 339.165 1260.76 341.293 1263.12 341.881C1266.84 342.809 1270.52 338.185 1270.59 332.488L1270.63 329.82L1272.67 334.206C1274.9 338.985 1278.1 341.633 1281.23 341.298C1282.71 341.138 1283.08 340.636 1283.44 338.285C1283.68 336.733 1283.92 335.852 1283.97 336.327C1284.03 336.802 1285.02 337.675 1286.17 338.268L1288.28 339.346L1288.76 336.774C1289.26 334.132 1289.01 328.694 1287.57 311.48C1287.12 306.048 1286.77 301.128 1286.8 300.546C1286.83 299.964 1287.17 295.837 1287.55 291.376C1288.51 280.329 1288.51 265.438 1287.55 260.902C1286.53 256.123 1279.82 239.73 1276 232.718L1273.06 227.317L1274.48 225.754C1275.26 224.895 1277.74 222.948 1279.99 221.428C1285.74 217.54 1286.53 216.096 1286.55 209.37C1286.56 203.242 1286.31 203.664 1293.4 198.159C1295.55 196.493 1295.71 196.131 1294.92 194.817C1293.68 192.767 1293.81 190.153 1295.21 189.003C1295.85 188.471 1300.24 186.13 1304.95 183.803C1314.12 179.274 1315.91 177.683 1313.7 176.053C1312.49 175.163 1312.8 174.82 1317.61 171.666C1322.48 168.481 1322.86 168.042 1323.24 165.283C1323.57 162.852 1324.47 161.46 1328.25 157.542C1333.27 152.337 1341.32 142.559 1349.47 131.777C1353.58 126.325 1355.57 124.363 1359.02 122.322C1365.29 118.617 1368 116.51 1368 115.343C1368 113.937 1366.65 114.06 1362.58 115.833C1356.89 118.315 1351.95 121.769 1350.29 124.431C1349.29 126.044 1345.77 128.887 1340.41 132.431C1335.83 135.455 1326.96 141.871 1320.7 146.689C1314.44 151.508 1308.92 155.764 1308.42 156.148C1306.68 157.485 1306.7 156.004 1308.47 152.176C1310.81 147.089 1311.31 144.593 1310.44 142.307C1309.85 140.772 1309.92 140.42 1310.8 140.42C1312.5 140.42 1313.99 135.889 1314.46 129.239C1314.76 124.872 1315.27 122.623 1316.23 121.327C1317.83 119.172 1318.53 113.134 1317.69 108.678C1317.17 105.925 1317.32 105.175 1318.79 103.034C1320.17 101.01 1320.4 100.003 1320.05 97.4434C1319.82 95.7264 1319.01 93.2787 1318.25 92.004C1317.29 90.3957 1316.99 88.9504 1317.26 87.2835C1317.69 84.6792 1315.86 79.8994 1314.19 79.2652C1313.6 79.0395 1313.4 78.2974 1313.65 77.2936C1314.38 74.434 1309.19 72.1344 1306.88 74.2894C1306.11 75.0124 1306.01 74.8544 1306.35 73.4076C1306.88 71.18 1305.83 66.4651 1304.52 65.1678C1303.67 64.3214 1301.39 66.3318 1288.61 79.2279ZM1261.99 325.411C1261.98 325.897 1261.49 327.245 1260.92 328.409C1260 330.277 1259.92 330.319 1260.23 328.762C1260.42 327.792 1260.59 326.443 1260.59 325.764C1260.6 325.085 1260.92 324.53 1261.31 324.53C1261.71 324.53 1262.01 324.927 1261.99 325.411Z" fill="white"/>
</svg>
