<svg width="1075" height="290" viewBox="0 0 1075 290" fill="none" xmlns="http://www.w3.org/2000/svg">
<path d="M74.1 267C90.7 267 104.433 262.8 115.3 254.4C126.233 246 133.833 234.7 138.1 220.5L116.9 214.8C114.033 224.867 109.033 232.767 101.9 238.5C94.7667 244.233 85.5 247.1 74.1 247.1C63.9 247.1 55.3667 244.8 48.5 240.2C41.7 235.6 36.5667 229.167 33.1 220.9C29.7 212.633 28.0333 203 28.1 192C28.1667 181 29.9 171.367 33.3 163.1C36.7 154.833 41.8 148.4 48.6 143.8C55.4 139.2 63.9 136.9 74.1 136.9C85.5 136.9 94.7667 139.767 101.9 145.5C109.033 151.233 114.033 159.133 116.9 169.2L138.1 163.5C133.833 149.3 126.233 138 115.3 129.6C104.433 121.2 90.7 117 74.1 117C59.7 117 47.4333 120.167 37.3 126.5C27.1667 132.833 19.4 141.633 14 152.9C8.66667 164.1 6 177.133 6 192C6 206.867 8.66667 219.933 14 231.2C19.4 242.4 27.1667 251.167 37.3 257.5C47.4333 263.833 59.7 267 74.1 267ZM214.994 267C225.727 267 235.06 264.6 242.994 259.8C250.927 254.933 257.06 248.233 261.394 239.7C265.794 231.1 267.994 221.167 267.994 209.9C267.994 198.767 265.827 188.933 261.494 180.4C257.16 171.8 251.027 165.1 243.094 160.3C235.16 155.433 225.794 153 214.994 153C204.394 153 195.127 155.4 187.194 160.2C179.26 165 173.094 171.667 168.694 180.2C164.294 188.733 162.094 198.633 162.094 209.9C162.094 221.033 164.26 230.9 168.594 239.5C172.927 248.1 179.027 254.833 186.894 259.7C194.827 264.567 204.194 267 214.994 267ZM214.994 247.3C204.927 247.3 197.294 243.933 192.094 237.2C186.894 230.4 184.294 221.3 184.294 209.9C184.294 198.9 186.794 189.967 191.794 183.1C196.794 176.167 204.527 172.7 214.994 172.7C225.194 172.7 232.86 176.067 237.994 182.8C243.194 189.533 245.794 198.567 245.794 209.9C245.794 220.967 243.227 229.967 238.094 236.9C233.027 243.833 225.327 247.3 214.994 247.3ZM299.969 264H320.869V117H299.969V264ZM360.898 264H381.798V117H360.898V264ZM421.828 138.3H442.728V118H421.828V138.3ZM421.828 264H442.728V156H421.828V264ZM480.658 264H499.258V254.1C503.191 258.167 507.824 261.333 513.158 263.6C518.558 265.867 524.658 267 531.458 267C541.524 267 550.191 264.5 557.458 259.5C564.791 254.433 570.424 247.6 574.358 239C578.358 230.4 580.358 220.7 580.358 209.9C580.358 199.033 578.358 189.333 574.358 180.8C570.358 172.2 564.658 165.433 557.258 160.5C549.924 155.5 541.191 153 531.058 153C525.058 153 519.591 153.9 514.658 155.7C509.724 157.5 505.391 160.067 501.658 163.4V120H480.658V264ZM528.558 248.1C518.291 248.1 510.824 244.533 506.158 237.4C501.558 230.267 499.258 221.1 499.258 209.9C499.258 198.7 501.558 189.567 506.158 182.5C510.758 175.433 517.991 171.9 527.858 171.9C534.791 171.9 540.491 173.6 544.958 177C549.424 180.4 552.724 184.967 554.858 190.7C557.058 196.433 558.158 202.833 558.158 209.9C558.158 217.033 557.091 223.5 554.958 229.3C552.824 235.033 549.558 239.6 545.158 243C540.824 246.4 535.291 248.1 528.558 248.1ZM610.438 264H631.538V209.5C631.538 203.167 632.538 197.3 634.538 191.9C636.538 186.5 640.071 182.167 645.138 178.9C648.738 176.567 652.704 175.2 657.038 174.8C661.371 174.4 665.271 174.667 668.738 175.6V156C663.871 155.067 658.704 155.1 653.238 156.1C647.838 157.1 643.104 159.1 639.038 162.1C635.038 164.767 631.704 168.467 629.038 173.2V156H610.438V264ZM697.781 138.3H718.681V118H697.781V138.3ZM697.781 264H718.681V156H697.781V264Z" fill="white"/>
<path fill-rule="evenodd" clip-rule="evenodd" d="M866.124 8.47508C856.967 17.4153 850.224 24.6143 847.7 28.1451C845.671 30.9843 843.689 34.9643 841.616 40.3645C840.582 43.0553 838.847 46.837 837.76 48.7681C836.645 50.7472 835.301 54.0061 834.679 56.2382C832.395 64.4292 825.708 79.3025 823.887 80.2374C823.3 80.539 820.836 80.1781 814.851 78.9142C805.149 76.8658 801.048 76.6423 798.302 78.0129C795.56 79.3814 792.963 81.7479 790.393 85.2199C789.093 86.9767 787.68 88.8259 787.254 89.3284C786.828 89.831 779.582 93.8236 771.153 98.201C751.453 108.432 749.845 109.286 750.01 109.445C750.086 109.517 758.604 106.643 768.941 103.058C780.094 99.1893 788.101 96.627 788.639 96.7548C789.137 96.8728 791.81 97.738 794.58 98.6771C797.35 99.6162 800.194 100.386 800.901 100.387C803.803 100.393 808.341 103.52 812.968 108.702C816.315 112.45 821.221 115.653 830.008 119.826C836.225 122.779 836.368 122.823 839.861 122.846C841.81 122.859 843.97 122.719 844.66 122.534L845.916 122.199L844.164 125.265C841.976 129.096 839.872 132.813 838.513 135.245C837.938 136.275 837.583 137.403 837.723 137.754C837.863 138.104 837.835 138.254 837.661 138.087C837.487 137.92 836.899 138.5 836.355 139.377C835.638 140.529 835.28 141.966 835.06 144.573C834.89 146.583 834.928 148.278 835.145 148.407C835.36 148.534 836.369 148.092 837.39 147.424C839.463 146.067 839.639 146.367 838.36 149.072C837.207 151.508 837.266 152.974 838.567 154.322C840.348 156.166 841.035 155.688 842.068 151.879C842.784 149.245 843.013 148.826 843.492 149.284C843.66 149.446 843.538 150.47 843.219 151.561C841.989 155.777 841.893 156.842 842.564 158.84C843.311 161.063 844.994 162.807 846.024 162.428C846.406 162.287 847.079 161.365 847.521 160.379L848.324 158.585L848.332 160.728C848.341 163.311 848.974 164.579 850.427 164.929C852.721 165.482 854.986 162.728 855.029 159.334L855.049 157.745L856.31 160.358C857.682 163.204 859.65 164.782 861.577 164.582C862.489 164.487 862.716 164.187 862.938 162.787C863.085 161.863 863.233 161.338 863.267 161.621C863.301 161.904 863.911 162.424 864.622 162.777L865.916 163.419L866.216 161.887C866.523 160.313 866.366 157.074 865.484 146.82C865.206 143.585 864.992 140.654 865.008 140.307C865.024 139.961 865.232 137.502 865.472 134.845C866.063 128.265 866.061 119.395 865.467 116.692C864.841 113.846 860.707 104.081 858.359 99.904L856.55 96.6871L857.422 95.756C857.901 95.2442 859.427 94.0845 860.812 93.179C864.357 90.863 864.84 90.0033 864.852 85.9968C864.862 82.3463 864.704 82.5975 869.072 79.3184C870.394 78.3259 870.495 78.1108 870.007 77.328C869.245 76.107 869.324 74.5493 870.182 73.8644C870.58 73.5476 873.28 72.1535 876.181 70.7668C881.826 68.0693 882.932 67.1218 881.571 66.1507C880.827 65.6204 881.015 65.4162 883.979 63.5376C886.972 61.6405 887.211 61.3787 887.441 59.7353C887.644 58.2874 888.198 57.4584 890.527 55.1243C893.62 52.0237 898.577 46.1996 903.59 39.7771C906.125 36.5295 907.345 35.3609 909.471 34.1449C913.331 31.9377 915 30.683 915 29.9876C915 29.1502 914.166 29.2233 911.662 30.2796C908.158 31.7583 905.119 33.8155 904.098 35.4013C903.48 36.3618 901.316 38.0556 898.012 40.1666C895.193 41.9679 889.734 45.7899 885.88 48.6597C882.027 51.53 878.623 54.0654 878.316 54.294C877.247 55.0902 877.259 54.2083 878.347 51.9279C879.793 48.8976 880.099 47.411 879.56 46.0491C879.198 45.1352 879.24 44.9256 879.783 44.9256C880.833 44.9256 881.745 42.2263 882.035 38.2648C882.224 35.6639 882.535 34.3243 883.128 33.552C884.114 32.2684 884.543 28.6716 884.026 26.0173C883.707 24.3778 883.797 23.9311 884.7 22.6558C885.553 21.4499 885.694 20.8503 885.48 19.3255C885.336 18.3027 884.837 16.8447 884.37 16.0854C883.781 15.1274 883.595 14.2665 883.764 13.2736C884.026 11.7223 882.899 8.87509 881.874 8.49734C881.509 8.36288 881.383 7.92085 881.539 7.32293C881.985 5.61951 878.795 4.24971 877.372 5.53337C876.895 5.96406 876.836 5.86994 877.046 5.00814C877.368 3.6812 876.722 0.872695 875.917 0.0999777C875.392 -0.404242 873.992 0.793283 866.124 8.47508ZM849.735 155.119C849.724 155.408 849.426 156.211 849.073 156.904C848.506 158.017 848.457 158.042 848.649 157.115C848.769 156.537 848.869 155.733 848.872 155.329C848.876 154.925 849.076 154.593 849.316 154.593C849.557 154.593 849.746 154.83 849.735 155.119Z" fill="white"/>
<path d="M796.766 228.469C800.922 222.688 805.406 219.797 810.219 219.797C814.625 219.797 818.469 221.688 821.75 225.469C825.031 229.219 826.672 234.359 826.672 240.891C826.672 248.516 824.141 254.656 819.078 259.312C814.734 263.312 809.891 265.312 804.547 265.312C802.047 265.312 799.5 264.859 796.906 263.953C794.344 263.047 791.719 261.688 789.031 259.875V215.391C789.031 210.516 788.906 207.516 788.656 206.391C788.438 205.266 788.078 204.5 787.578 204.094C787.078 203.688 786.453 203.484 785.703 203.484C784.828 203.484 783.734 203.734 782.422 204.234L781.766 202.594L794.656 197.344H796.766V228.469ZM796.766 231.469V257.156C798.359 258.719 800 259.906 801.688 260.719C803.406 261.5 805.156 261.891 806.938 261.891C809.781 261.891 812.422 260.328 814.859 257.203C817.328 254.078 818.562 249.531 818.562 243.562C818.562 238.062 817.328 233.844 814.859 230.906C812.422 227.938 809.641 226.453 806.516 226.453C804.859 226.453 803.203 226.875 801.547 227.719C800.297 228.344 798.703 229.594 796.766 231.469ZM844.059 237.234C844.028 243.609 845.574 248.609 848.699 252.234C851.824 255.859 855.496 257.672 859.715 257.672C862.528 257.672 864.965 256.906 867.028 255.375C869.121 253.812 870.871 251.156 872.278 247.406L873.731 248.344C873.074 252.625 871.168 256.531 868.012 260.062C864.856 263.562 860.903 265.312 856.153 265.312C850.996 265.312 846.574 263.312 842.887 259.312C839.231 255.281 837.403 249.875 837.403 243.094C837.403 235.75 839.278 230.031 843.028 225.938C846.809 221.812 851.543 219.75 857.231 219.75C862.043 219.75 865.996 221.344 869.09 224.531C872.184 227.688 873.731 231.922 873.731 237.234H844.059ZM844.059 234.516H863.934C863.778 231.766 863.449 229.828 862.949 228.703C862.168 226.953 860.996 225.578 859.434 224.578C857.903 223.578 856.293 223.078 854.606 223.078C852.012 223.078 849.684 224.094 847.621 226.125C845.59 228.125 844.403 230.922 844.059 234.516ZM907.664 257.812C903.258 261.219 900.493 263.188 899.368 263.719C897.68 264.5 895.883 264.891 893.977 264.891C891.008 264.891 888.555 263.875 886.618 261.844C884.711 259.812 883.758 257.141 883.758 253.828C883.758 251.734 884.227 249.922 885.164 248.391C886.446 246.266 888.664 244.266 891.821 242.391C895.008 240.516 900.289 238.234 907.664 235.547V233.859C907.664 229.578 906.977 226.641 905.602 225.047C904.258 223.453 902.289 222.656 899.696 222.656C897.727 222.656 896.164 223.188 895.008 224.25C893.821 225.312 893.227 226.531 893.227 227.906L893.321 230.625C893.321 232.062 892.946 233.172 892.196 233.953C891.477 234.734 890.524 235.125 889.336 235.125C888.18 235.125 887.227 234.719 886.477 233.906C885.758 233.094 885.399 231.984 885.399 230.578C885.399 227.891 886.774 225.422 889.524 223.172C892.274 220.922 896.133 219.797 901.102 219.797C904.914 219.797 908.039 220.438 910.477 221.719C912.321 222.688 913.68 224.203 914.555 226.266C915.118 227.609 915.399 230.359 915.399 234.516V249.094C915.399 253.188 915.477 255.703 915.633 256.641C915.789 257.547 916.039 258.156 916.383 258.469C916.758 258.781 917.18 258.938 917.649 258.938C918.149 258.938 918.586 258.828 918.961 258.609C919.618 258.203 920.883 257.062 922.758 255.188V257.812C919.258 262.5 915.914 264.844 912.727 264.844C911.196 264.844 909.977 264.312 909.071 263.25C908.164 262.188 907.696 260.375 907.664 257.812ZM907.664 254.766V238.406C902.946 240.281 899.899 241.609 898.524 242.391C896.055 243.766 894.289 245.203 893.227 246.703C892.164 248.203 891.633 249.844 891.633 251.625C891.633 253.875 892.305 255.75 893.649 257.25C894.993 258.719 896.539 259.453 898.289 259.453C900.664 259.453 903.789 257.891 907.664 254.766ZM967.473 221.062V247.078C967.473 252.047 967.583 255.094 967.801 256.219C968.051 257.312 968.426 258.078 968.926 258.516C969.458 258.953 970.067 259.172 970.754 259.172C971.723 259.172 972.817 258.906 974.036 258.375L974.692 260.016L961.848 265.312H959.739V256.219C956.051 260.219 953.239 262.734 951.301 263.766C949.364 264.797 947.317 265.312 945.161 265.312C942.754 265.312 940.661 264.625 938.879 263.25C937.129 261.844 935.911 260.047 935.223 257.859C934.536 255.672 934.192 252.578 934.192 248.578V229.406C934.192 227.375 933.973 225.969 933.536 225.188C933.098 224.406 932.442 223.812 931.567 223.406C930.723 222.969 929.176 222.766 926.926 222.797V221.062H941.973V249.797C941.973 253.797 942.661 256.422 944.036 257.672C945.442 258.922 947.129 259.547 949.098 259.547C950.442 259.547 951.958 259.125 953.645 258.281C955.364 257.438 957.395 255.828 959.739 253.453V229.125C959.739 226.688 959.286 225.047 958.379 224.203C957.504 223.328 955.661 222.859 952.848 222.797V221.062H967.473ZM994.141 206.953V221.062H1004.17V224.344H994.141V252.188C994.141 254.969 994.532 256.844 995.313 257.812C996.126 258.781 997.157 259.266 998.407 259.266C999.438 259.266 1000.44 258.953 1001.41 258.328C1002.38 257.672 1003.13 256.719 1003.66 255.469H1005.49C1004.39 258.531 1002.84 260.844 1000.84 262.406C998.844 263.938 996.782 264.703 994.657 264.703C993.219 264.703 991.813 264.312 990.438 263.531C989.063 262.719 988.048 261.578 987.391 260.109C986.735 258.609 986.407 256.312 986.407 253.219V224.344H979.61V222.797C981.329 222.109 983.079 220.953 984.86 219.328C986.673 217.672 988.282 215.719 989.688 213.469C990.407 212.281 991.407 210.109 992.688 206.953H994.141ZM1009.79 221.062H1029.81V222.797H1028.82C1027.42 222.797 1026.36 223.109 1025.64 223.734C1024.95 224.328 1024.61 225.078 1024.61 225.984C1024.61 227.203 1025.12 228.891 1026.15 231.047L1036.61 252.703L1046.22 228.984C1046.75 227.703 1047.01 226.438 1047.01 225.188C1047.01 224.625 1046.9 224.203 1046.68 223.922C1046.43 223.578 1046.04 223.312 1045.51 223.125C1044.98 222.906 1044.04 222.797 1042.7 222.797V221.062H1056.67V222.797C1055.51 222.922 1054.62 223.172 1054 223.547C1053.37 223.922 1052.68 224.625 1051.93 225.656C1051.65 226.094 1051.12 227.297 1050.34 229.266L1032.86 272.109C1031.17 276.266 1028.95 279.406 1026.2 281.531C1023.48 283.656 1020.86 284.719 1018.32 284.719C1016.48 284.719 1014.97 284.188 1013.78 283.125C1012.59 282.062 1012 280.844 1012 279.469C1012 278.156 1012.42 277.094 1013.26 276.281C1014.14 275.5 1015.32 275.109 1016.82 275.109C1017.86 275.109 1019.26 275.453 1021.04 276.141C1022.29 276.609 1023.07 276.844 1023.39 276.844C1024.32 276.844 1025.34 276.359 1026.43 275.391C1027.56 274.422 1028.68 272.547 1029.81 269.766L1032.86 262.312L1017.43 229.922C1016.97 228.953 1016.22 227.75 1015.18 226.312C1014.4 225.219 1013.76 224.484 1013.26 224.109C1012.54 223.609 1011.39 223.172 1009.79 222.797V221.062Z" fill="white"/>
</svg>
