<svg width="40" height="40" viewBox="0 0 40 40" fill="none" xmlns="http://www.w3.org/2000/svg">
<path d="M40 0H0V40H40V0Z" fill="#2AA1DA"/>
<path fill-rule="evenodd" clip-rule="evenodd" d="M24.1678 24.2788C24.1508 24.4639 24.0787 24.6397 23.9608 24.7835C23.8429 24.9273 23.6847 25.0324 23.5065 25.0854C23.3283 25.1383 23.1384 25.1367 22.9611 25.0806C22.7838 25.0246 22.6274 24.9167 22.512 24.7709C21.498 23.9644 19.9167 22.8035 19.9167 22.8035C19.9167 22.8035 18.7725 24.8193 18.5678 25.0258C18.5003 25.0827 18.4216 25.1249 18.3368 25.1496C18.252 25.1744 18.1629 25.1812 18.0753 25.1695C17.9878 25.1579 17.9036 25.1281 17.8282 25.082C17.7529 25.0359 17.6879 24.9747 17.6376 24.902C17.6271 24.8703 17.6148 24.8392 17.6005 24.809L18.2423 21.5979L22.819 17.1021L16.5771 20.6639C16.5771 20.6639 13.7585 19.8211 13.3399 19.6565C13.2319 19.5975 13.1429 19.5091 13.0831 19.4016C13.0232 19.2941 12.9952 19.1718 13.002 19.0489C13.0088 18.9261 13.0502 18.8077 13.1216 18.7074C13.1929 18.6072 13.2912 18.5292 13.4051 18.4825C14.0004 18.1793 24.5027 14.1681 24.8562 14.0648C25.2097 13.9616 26.1399 13.6927 26.0376 14.5979C25.9353 15.503 24.2702 23.7821 24.1678 24.2788Z" fill="white"/>
</svg>
