<svg width="35" height="30" viewBox="0 0 35 30" fill="none" xmlns="http://www.w3.org/2000/svg">
<path fill-rule="evenodd" clip-rule="evenodd" d="M29.9622 27.6064C29.9161 28.1009 29.7223 28.5703 29.4058 28.9541C29.0894 29.3379 28.6649 29.6184 28.1868 29.7596C27.7087 29.9008 27.1991 29.8961 26.7237 29.7463C26.2483 29.5964 25.8287 29.3082 25.5193 28.9187C22.7988 26.7664 18.5559 23.6646 18.5559 23.6646C18.5559 23.6646 15.4857 29.0505 14.9366 29.6023C14.7552 29.754 14.544 29.8665 14.3166 29.9324C14.0891 29.9983 13.8503 30.0163 13.6155 29.9852C13.3806 29.9541 13.1548 29.8746 12.9525 29.7517C12.7502 29.6289 12.5759 29.4654 12.4406 29.2717C12.4126 29.1869 12.3795 29.1038 12.341 29.0231L14.0631 20.4436L26.3432 8.43163L9.59523 17.9482C9.59523 17.9482 2.03259 15.6964 0.909414 15.2565C0.619675 15.0989 0.380742 14.8628 0.220228 14.5755C0.0597149 14.2882 -0.0155975 13.9616 0.00268677 13.6333C0.020971 13.3051 0.13208 12.9887 0.323515 12.7209C0.51495 12.453 0.778835 12.2447 1.0843 12.12C2.6817 11.3097 30.8607 0.592633 31.8091 0.316753C32.7576 0.0408733 35.2536 -0.677413 34.979 1.74088C34.7045 4.15918 30.2367 26.2767 29.9622 27.6064Z" fill="#333333"/>
</svg>
