<svg width="43" height="43" viewBox="0 0 43 43" fill="none" xmlns="http://www.w3.org/2000/svg">
<path d="M0 21.5C0 33.3741 9.62588 43 21.5 43C33.3741 43 43 33.3741 43 21.5C43 9.62588 33.3741 0 21.5 0C9.62588 0 0 9.62588 0 21.5Z" fill="#2AA1DA"/>
<path fill-rule="evenodd" clip-rule="evenodd" d="M25.98 26.1C25.9617 26.299 25.8841 26.488 25.7574 26.6426C25.6307 26.7971 25.4606 26.9101 25.269 26.967C25.0774 27.024 24.8733 27.0222 24.6827 26.9619C24.5964 26.9347 24.5147 26.8959 24.4395 26.8471C24.2581 26.7294 24.1149 26.561 23.9447 26.4276C23.8474 26.3515 23.747 26.2735 23.645 26.1946C22.4671 25.2844 21.0077 25.8457 19.9599 26.903C19.8873 26.9642 19.8028 27.0096 19.7116 27.0362C19.6205 27.0628 19.5247 27.0701 19.4305 27.0575C19.3364 27.045 19.2459 27.013 19.1649 26.9634C19.0932 26.9196 19.0303 26.863 18.9793 26.7965C18.966 26.7792 18.9567 26.7594 18.9491 26.739C18.9322 26.6934 18.9252 26.6442 18.9347 26.5965L19.5581 23.4775C19.5919 23.3084 19.6757 23.1534 19.7988 23.0325C20.5176 22.3264 19.645 21.1726 18.7698 21.672L18.1729 22.0126C17.9475 22.1412 17.6798 22.1721 17.4312 22.0973C16.5986 21.8467 14.6898 21.2686 14.3399 21.131C14.2239 21.0676 14.1281 20.9726 14.0638 20.857C13.9995 20.7414 13.9693 20.61 13.9767 20.4779C13.984 20.3458 14.0285 20.2185 14.1052 20.1108C14.1819 20.003 14.2876 19.9192 14.41 19.869C15.05 19.543 26.3399 15.231 26.7199 15.12C27.0999 15.009 28.1 14.72 27.99 15.693C27.88 16.666 26.09 25.566 25.98 26.1Z" fill="white"/>
</svg>
