<svg width="20" height="17" viewBox="0 0 20 17" fill="none" xmlns="http://www.w3.org/2000/svg">
<path fill-rule="evenodd" clip-rule="evenodd" d="M9.62928 5.25687C9.62928 5.25687 9.99375 0.109154 13.5824 0.0645648C16.5037 0.0261262 17.0633 1.35304 17.0633 1.35304C17.9453 1.08367 18.7609 0.632142 19.4573 0.027684C19.3944 0.887164 19.0502 1.702 18.4778 2.34629C19.0336 2.34252 19.571 2.1476 20 1.7943C19.8875 2.20926 19.6866 2.595 19.4111 2.92512C19.1357 3.25525 18.7922 3.522 18.4041 3.70703C18.5872 6.92558 17.7241 10.117 15.944 12.8047C13.3301 16.5993 8.57609 16.8837 5.96842 16.916C3.88149 16.7925 1.84922 16.2003 0.0227389 15.1832C0.0227389 15.1832 3.9788 15.2309 5.75005 13.9378C4.3477 12.979 3.03541 11.8946 1.82933 10.6982C2.30715 10.738 2.78826 10.6895 3.24854 10.5552C1.98257 9.21596 0.897039 7.71693 0.019642 6.0963C0.509424 6.19379 1.01079 6.21967 1.50801 6.17316C1.50801 6.17316 -0.79827 2.42778 0.293385 0C0.293385 0.00615017 4.19099 4.92937 9.62928 5.25687Z" fill="white"/>
</svg>
