<svg width="20" height="21" viewBox="0 0 20 21" fill="none" xmlns="http://www.w3.org/2000/svg">
    <path fill-rule="evenodd" clip-rule="evenodd" d="M8.42923 0.113905C6.18406 0.650788 4.3452 2.56254 4.03236 4.68498C3.669 7.15072 4.99237 9.4502 7.39426 10.5271C8.29917 10.9327 8.52477 10.9746 9.8 10.9746C11.0752 10.9746 11.3008 10.9327 12.2057 10.5271C16.7392 8.49475 16.7613 2.5111 12.2426 0.510189C11.1814 0.0401708 9.47768 -0.136874 8.42923 0.113905ZM6.91151 12.4422C3.20877 13.192 0.469441 16.0808 0.0838651 19.6423C-0.0761128 21.1191 -0.948733 20.9974 9.8 20.9974C20.5646 20.9974 19.6766 21.1237 19.5133 19.6161C19.1769 16.5089 16.9008 13.7809 13.7584 12.7189C12.9606 12.4493 12.4779 12.4017 10.1703 12.3648C8.70386 12.3414 7.23739 12.3761 6.91151 12.4422Z" fill="black"/>
</svg>