<svg width="14" height="14" viewBox="0 0 14 14" fill="none" xmlns="http://www.w3.org/2000/svg">
<path fill-rule="evenodd" clip-rule="evenodd" d="M7.00027 14.0005C5.68042 13.9972 4.38878 13.6177 3.27613 12.9065L0 14.0005L1.09208 10.7173C0.269325 9.40189 -0.0937244 7.84976 0.0601585 6.30505C0.214041 4.76035 0.876131 3.31072 1.94216 2.18413C3.0082 1.05755 4.41767 0.317935 5.94909 0.0816072C7.4805 -0.154721 9.04695 0.125628 10.402 0.878601C11.757 1.63157 12.8237 2.8144 13.4344 4.24111C14.0451 5.66782 14.1651 7.25749 13.7756 8.76002C13.3861 10.2625 12.5092 11.5927 11.2827 12.5413C10.0562 13.49 8.54974 14.0033 7.00027 14.0005ZM8.52166 8.04943C8.98729 8.20034 9.46094 8.32523 9.9404 8.4235C9.99083 8.43094 10.0392 8.44848 10.0827 8.4751C10.1262 8.50172 10.1639 8.53685 10.1936 8.5784C10.2232 8.61996 10.2442 8.66712 10.2552 8.71698C10.2662 8.76684 10.267 8.81842 10.2577 8.86863V9.13791C10.2623 9.23403 10.2445 9.32993 10.2056 9.41792C10.1668 9.50591 10.1079 9.58355 10.0337 9.64473C9.80368 9.87868 9.53127 10.0666 9.23103 10.1984C8.7881 10.2511 8.33902 10.2119 7.91187 10.0832C7.48472 9.95453 7.08863 9.73903 6.74824 9.45022C6.30937 9.15528 5.89997 8.81869 5.52558 8.44502C5.15297 8.06802 4.81548 7.65763 4.51747 7.21905C4.23151 6.87781 4.01857 6.48138 3.89173 6.05432C3.7649 5.62727 3.72695 5.17871 3.78019 4.73635C3.91192 4.43723 4.09871 4.16566 4.33084 3.93587C4.38998 3.86008 4.46697 3.80021 4.55496 3.76168C4.64295 3.72316 4.73921 3.70717 4.8349 3.71517H5.1055C5.20759 3.70104 5.31118 3.72804 5.39342 3.79028C5.47566 3.85251 5.5298 3.94492 5.54416 4.04717C5.68416 4.60076 5.78686 5.00099 5.92687 5.44984C5.98287 5.63687 5.91761 5.68173 5.76827 5.79395C5.67493 5.86595 5.60025 5.91833 5.52558 5.97351C5.48228 5.99239 5.44342 6.02017 5.41153 6.05507C5.37964 6.08997 5.3554 6.13118 5.34044 6.17606C5.32547 6.22095 5.32004 6.26852 5.3246 6.31561C5.32916 6.36271 5.34358 6.40829 5.36687 6.44945C5.60524 6.90908 5.91032 7.33074 6.27221 7.70065C6.6409 8.06391 7.06272 8.3688 7.52301 8.60489C7.56421 8.62782 7.60961 8.64197 7.65654 8.64638C7.70347 8.65079 7.7508 8.64537 7.79554 8.63051C7.84028 8.61566 7.88153 8.5917 7.91654 8.56008C7.95155 8.52847 7.97954 8.48989 7.99892 8.44685C8.05492 8.3711 8.10165 8.30005 8.17632 8.20279C8.18796 8.16918 8.20626 8.13825 8.2301 8.11187C8.25394 8.0855 8.28285 8.06425 8.31509 8.04932C8.34733 8.03439 8.38225 8.02611 8.41775 8.02501C8.45325 8.02391 8.48856 8.03002 8.52166 8.04293V8.04943Z" fill="black"/>
</svg>
