<svg width="30" height="30" viewBox="0 0 30 30" fill="none" xmlns="http://www.w3.org/2000/svg">
<path fill-rule="evenodd" clip-rule="evenodd" d="M15 30C12.1719 29.9928 9.40417 29.1797 7.02002 27.6556L0 30L2.34009 22.9649C0.577103 20.1461 -0.20083 16.8203 0.128906 13.5103C0.458643 10.2004 1.87735 7.09413 4.16162 4.68011C6.44589 2.26608 9.46607 0.681264 12.7476 0.174866C16.029 -0.331532 19.3856 0.269193 22.2891 1.88264C25.1925 3.4961 27.4782 6.03063 28.7869 9.08775C30.0955 12.1449 30.3527 15.5512 29.5181 18.7708C28.6834 21.9903 26.8044 24.8405 24.1763 26.8733C21.5482 28.906 18.3202 30.006 15 30ZM18.26 17.2481C19.2577 17.5715 20.2727 17.8391 21.3 18.0497C21.4081 18.0656 21.5118 18.1032 21.605 18.1602C21.6982 18.2173 21.779 18.2925 21.8425 18.3816C21.906 18.4706 21.951 18.5717 21.9746 18.6785C21.9982 18.7854 22 18.8959 21.98 19.0035V19.5805C21.9899 19.7865 21.9517 19.9919 21.8684 20.1805C21.7851 20.369 21.6589 20.5354 21.5 20.6665C21.0071 21.1678 20.4234 21.5705 19.78 21.8528C18.8309 21.9659 17.8687 21.8819 16.9534 21.6061C16.0381 21.3303 15.1893 20.8686 14.46 20.2497C13.5196 19.6177 12.6423 18.8965 11.8401 18.0958C11.0417 17.2879 10.3185 16.4086 9.67993 15.4688C9.06718 14.7376 8.61089 13.8881 8.33911 12.9731C8.06733 12.058 7.98602 11.0968 8.1001 10.1489C8.38236 9.508 8.78261 8.92607 9.28003 8.4337C9.40675 8.27129 9.57172 8.14299 9.76025 8.06044C9.94879 7.97789 10.1551 7.94363 10.3601 7.96077H10.9399C11.1587 7.93049 11.3807 7.98836 11.5569 8.12171C11.7331 8.25506 11.8491 8.45309 11.8799 8.67218C12.1799 9.8584 12.4 10.716 12.7 11.6778C12.82 12.0785 12.6801 12.1747 12.3601 12.4151C12.1601 12.5694 12.0001 12.6817 11.8401 12.7999C11.7473 12.8403 11.664 12.8999 11.5957 12.9746C11.5274 13.0494 11.4754 13.1378 11.4434 13.2339C11.4113 13.3301 11.3997 13.432 11.4094 13.5329C11.4192 13.6339 11.4501 13.7315 11.5 13.8197C12.0108 14.8046 12.6645 15.7081 13.4399 16.5008C14.23 17.2791 15.1338 17.9325 16.1201 18.4383C16.2084 18.4875 16.3057 18.5178 16.4062 18.5273C16.5068 18.5367 16.6082 18.5251 16.7041 18.4933C16.8 18.4614 16.8884 18.4101 16.9634 18.3423C17.0384 18.2746 17.0984 18.1919 17.1399 18.0997C17.2599 17.9374 17.36 17.7851 17.52 17.5767C17.545 17.5047 17.5842 17.4384 17.6353 17.3819C17.6863 17.3254 17.7483 17.2799 17.8174 17.2479C17.8865 17.2159 17.9613 17.1981 18.0374 17.1958C18.1134 17.1934 18.1891 17.2065 18.26 17.2342V17.2481Z" fill="#333333"/>
</svg>
