<svg width="40" height="40" viewBox="0 0 40 40" fill="none" xmlns="http://www.w3.org/2000/svg">
<path d="M40 0H0V40H40V0Z" fill="#65BC54"/>
<path fill-rule="evenodd" clip-rule="evenodd" d="M20.0002 26.977C18.6848 26.9737 17.3975 26.5962 16.2886 25.8886L13.0234 26.977L14.1119 23.711C13.2919 22.4024 12.93 20.8584 13.0834 19.3217C13.2368 17.7851 13.8966 16.343 14.9591 15.2223C16.0215 14.1016 17.4263 13.3658 18.9525 13.1307C20.4788 12.8956 22.04 13.1746 23.3904 13.9236C24.7409 14.6726 25.804 15.8493 26.4127 17.2686C27.0213 18.6878 27.141 20.2692 26.7528 21.7638C26.3646 23.2585 25.4906 24.5818 24.2682 25.5255C23.0458 26.4692 21.5445 26.9798 20.0002 26.977ZM21.5165 21.057C21.9804 21.2087 22.4525 21.3344 22.9304 21.4337C22.9807 21.4411 23.0289 21.4586 23.0723 21.4851C23.1156 21.5116 23.1532 21.5465 23.1828 21.5879C23.2123 21.6292 23.2332 21.6761 23.2442 21.7257C23.2552 21.7753 23.256 21.8266 23.2467 21.8765V22.1398C23.2513 22.2354 23.2336 22.3308 23.1948 22.4183C23.156 22.5058 23.0973 22.5831 23.0234 22.644C22.7942 22.8767 22.5227 23.0636 22.2235 23.1947C21.782 23.2472 21.3344 23.2082 20.9087 23.0802C20.483 22.9521 20.0882 22.7378 19.749 22.4505C19.3114 22.1574 18.9033 21.8225 18.5305 21.4505C18.1591 21.0754 17.8227 20.6672 17.5257 20.2309C17.2407 19.8915 17.0284 19.4972 16.902 19.0724C16.7756 18.6475 16.7378 18.2012 16.7909 17.7612C16.9222 17.4636 17.1084 17.1935 17.3397 16.9649C17.3987 16.8895 17.4754 16.83 17.5631 16.7917C17.6508 16.7533 17.7467 16.7374 17.8421 16.7454H18.1118C18.2135 16.7313 18.3168 16.7582 18.3987 16.8201C18.4807 16.882 18.5347 16.9739 18.549 17.0756C18.6885 17.6263 18.7909 18.0244 18.9304 18.4709C18.9862 18.657 18.9212 18.7017 18.7723 18.8133C18.6793 18.8849 18.6049 18.937 18.5305 18.9928C18.4873 19.0115 18.4486 19.0391 18.4168 19.0737C18.385 19.1083 18.3608 19.1493 18.3459 19.1938C18.331 19.2384 18.3257 19.2856 18.3303 19.3324C18.3348 19.3792 18.3491 19.4245 18.3723 19.4654C18.6098 19.9226 18.9139 20.3421 19.2746 20.71C19.642 21.0714 20.0624 21.3747 20.5212 21.6096C20.5622 21.6324 20.6075 21.6464 20.6543 21.6508C20.701 21.6552 20.7482 21.6498 20.7928 21.6351C20.8374 21.6203 20.8785 21.5964 20.9134 21.565C20.9483 21.5335 20.9762 21.4952 20.9955 21.4524C21.0513 21.377 21.0979 21.3072 21.1723 21.2095C21.184 21.1762 21.2023 21.1455 21.2261 21.1194C21.2499 21.0932 21.2786 21.0721 21.3107 21.0572C21.3428 21.0424 21.3776 21.0342 21.4129 21.033C21.4482 21.0318 21.4835 21.0378 21.5165 21.0505V21.057Z" fill="white"/>
</svg>
