<svg width="43" height="43" viewBox="0 0 43 43" fill="none" xmlns="http://www.w3.org/2000/svg">
<path d="M0 21.5C0 33.3741 9.62588 43 21.5 43C33.3741 43 43 33.3741 43 21.5C43 9.62588 33.3741 0 21.5 0C9.62588 0 0 9.62588 0 21.5Z" fill="#65BC54"/>
<path fill-rule="evenodd" clip-rule="evenodd" d="M21.5 29C20.0859 28.9964 18.7021 28.5906 17.51 27.8299L14 29L15.17 25.489C14.2886 24.0822 13.8996 22.4224 14.0645 20.7705C14.2293 19.1186 14.9387 17.5684 16.0808 16.3636C17.2229 15.1589 18.733 14.3679 20.3738 14.1152C22.0145 13.8625 23.6928 14.1623 25.1445 14.9675C26.5963 15.7728 27.7391 17.0377 28.3934 18.5634C29.0478 20.0891 29.1763 21.789 28.759 23.3958C28.3417 25.0026 27.4022 26.4251 26.0881 27.4396C24.7741 28.454 23.1601 29.0029 21.5 29ZM23.13 22.6359C23.6288 22.799 24.1362 22.9342 24.65 23.0409C24.7041 23.0489 24.7559 23.0677 24.8025 23.0961C24.8491 23.1246 24.8895 23.1622 24.9213 23.2067C24.953 23.2511 24.9755 23.3015 24.9873 23.3548C24.9991 23.4081 25 23.4633 24.99 23.517V23.7999C24.9949 23.9027 24.9759 24.0053 24.9342 24.0994C24.8925 24.1934 24.8294 24.2765 24.75 24.342C24.5035 24.5921 24.2117 24.793 23.89 24.9339C23.4155 24.9904 22.9343 24.9485 22.4767 24.8109C22.019 24.6732 21.5947 24.4428 21.23 24.134C20.7596 23.8189 20.3209 23.4588 19.92 23.0589C19.5208 22.6558 19.1592 22.2169 18.84 21.7479C18.5335 21.3831 18.3053 20.9592 18.1694 20.5025C18.0335 20.0458 17.993 19.566 18.05 19.0929C18.1912 18.7731 18.3913 18.4827 18.64 18.237C18.7034 18.1559 18.7859 18.0919 18.8801 18.0507C18.9744 18.0095 19.0775 17.9924 19.1801 18.001H19.47C19.5793 17.9859 19.6903 18.0147 19.7784 18.0813C19.8666 18.1478 19.9246 18.2466 19.9399 18.3559C20.0899 18.9479 20.2 19.3759 20.35 19.8559C20.41 20.0559 20.3401 20.104 20.1801 20.224C20.0801 20.301 20 20.3569 19.92 20.4169C19.8737 20.437 19.832 20.4667 19.7979 20.5039C19.7637 20.5411 19.7377 20.5851 19.7217 20.633C19.7056 20.681 19.7 20.7317 19.7048 20.782C19.7097 20.8323 19.7251 20.881 19.75 20.9249C20.0054 21.4165 20.3322 21.8674 20.72 22.263C21.115 22.6514 21.5669 22.9775 22.0601 23.23C22.1042 23.2545 22.1528 23.2696 22.2031 23.2743C22.2534 23.279 22.3041 23.2733 22.3521 23.2574C22.4 23.2415 22.4442 23.2158 22.4817 23.182C22.5192 23.1482 22.5492 23.107 22.5699 23.061C22.6299 22.98 22.68 22.9049 22.76 22.7999C22.7726 22.7641 22.7923 22.7311 22.8179 22.703C22.8434 22.6749 22.8743 22.6521 22.9088 22.6362C22.9433 22.6202 22.9807 22.6114 23.0187 22.6102C23.0567 22.6089 23.0945 22.6153 23.13 22.629V22.6359Z" fill="white"/>
</svg>
